#N canvas 829 209 450 300 10;
#X obj 149 120 amen~;
#X obj 149 157 amde~;
#X obj 149 20 osc~ 440;
#X obj 162 41 osc~ 0.2;
#X obj 162 61 +~ 1;
#X obj 162 81 *~ 180;
#X msg 206 103 7;
#X text 237 101 <- this does nothing rn;
#X obj 152 187 dac~;
#X text 13 10 [amen~] and [amde~] \; "holy" ambisonics;
#X connect 0 0 1 0;
#X connect 0 1 1 1;
#X connect 0 2 1 2;
#X connect 0 3 1 3;
#X connect 1 0 8 0;
#X connect 1 1 8 1;
#X connect 2 0 0 0;
#X connect 3 0 4 0;
#X connect 4 0 5 0;
#X connect 5 0 0 1;
#X connect 6 0 0 2;
