#N canvas 786 264 598 324 10;
#X obj 184 126 threepan~;
#X obj 184 72 osc~;
#X obj 269 111 hsl 128 15 0 1 0 0 empty empty empty -2 -8 0 10 -262144
-1 -1 0 1;
#X obj 184 173 dac~;
#X msg 184 37 200;
#X msg 30 68 mode 0;
#X msg 30 88 mode 1;
#X msg 30 109 mode 2;
#X obj 266 64 vline~;
#X obj 266 87 snapshot~;
#X obj 409 70 metro 10;
#X msg 266 38 1 5000 \, 0 5000 5000;
#X obj 409 21 loadbang;
#X text 154 212 [threepan~] Brian Voyer 2017 - Performs linear (mode
0) \, equal power (mode 1) \, or cosine (mode 2) panning on an input
signal. Modes are also "mode lin" \, "mode pow" \, and "mode cos" \,
respectively.;
#X msg 83 68 mode lin;
#X msg 83 88 mode pow;
#X msg 83 109 mode cos;
#X connect 0 0 3 0;
#X connect 0 1 3 1;
#X connect 1 0 0 0;
#X connect 2 0 0 1;
#X connect 4 0 1 0;
#X connect 5 0 0 0;
#X connect 6 0 0 0;
#X connect 7 0 0 0;
#X connect 8 0 9 0;
#X connect 9 0 2 0;
#X connect 10 0 9 0;
#X connect 11 0 8 0;
#X connect 12 0 10 0;
#X connect 12 0 4 0;
#X connect 14 0 0 0;
#X connect 15 0 0 0;
#X connect 16 0 0 0;
