#N canvas 605 75 587 505 10;
#X obj 23 307 dac~ 1 2;
#X floatatom 23 -80 5 0 0 0 - initfreq -;
#X msg 38 102 sine;
#X msg 41 121 triangle;
#X msg 44 140 sawtooth;
#X obj 23 -32 line~ 1000;
#X msg 23 -57 \$1 50;
#X obj 162 242 tgl 15 0 empty starter empty 17 7 0 10 -262144 -1 -1
1 1;
#X obj 162 263 metro 50;
#X msg 47 159 square;
#X msg 29 38 saw 0 1 0.5 0.25;
#X msg 26 18 sin 0 1 0.5 0.25;
#X msg 35 78 sqr 0 1 0.5 0.25;
#N canvas 573 300 450 300 output 0;
#N canvas 0 22 450 278 (subpatch) 0;
#X array output 2048 float 4;
#X coords 0 1 2047 -1 100 100 1 0 0;
#X restore 101 113 graph;
#X obj 277 186 s starter;
#X obj 277 128 loadbang;
#X msg 366 145 \; pd dsp 1;
#X msg 338 157 440;
#X obj 338 186 s initfreq;
#X connect 2 0 1 0;
#X connect 2 0 3 0;
#X connect 2 0 4 0;
#X connect 4 0 5 0;
#X coords 0 -1 1 1 102 114 2 100 100;
#X restore 267 210 pd output;
#X text 135 57 <- additive synthesis with triangle wave;
#X text 135 36 <- additive synthesis with sawtooth wave;
#X text 135 77 <- additive synthesis with square wave;
#X text 135 17 <- additive synthesis with sine wave;
#X text 27 -14 additive synthesis: specify harmonics (0th \, 1st \,
...) and base waveform;
#X msg 32 58 tri 0 1 0.5 0.25;
#X obj 162 286 tabwrite~ output;
#X obj 57 249 +~ 6;
#X obj 57 228 *~ 5.95;
#X obj 57 206 osc~ 0.1;
#X msg 122 252 -0.8;
#X msg 57 185 0.1;
#X msg 127 189 0;
#X text 86 100 <- set single tone waves;
#X text 156 188 <- turn off the flange;
#X text 22 -100 [wavgen~] v1.0 simple waveform generator;
#X text 264 322 (c) Brian Voyer 2017;
#X obj 23 269 wavgen~ sine;
#X connect 1 0 6 0;
#X connect 2 0 31 0;
#X connect 3 0 31 0;
#X connect 4 0 31 0;
#X connect 5 0 31 0;
#X connect 6 0 5 0;
#X connect 7 0 8 0;
#X connect 8 0 20 0;
#X connect 9 0 31 0;
#X connect 10 0 31 0;
#X connect 11 0 31 0;
#X connect 12 0 31 0;
#X connect 19 0 31 0;
#X connect 21 0 31 1;
#X connect 22 0 21 0;
#X connect 23 0 22 0;
#X connect 24 0 31 2;
#X connect 25 0 23 0;
#X connect 26 0 23 0;
#X connect 26 0 31 2;
#X connect 31 0 0 0;
#X connect 31 0 0 1;
#X connect 31 0 20 0;
